<?xml version="1.0" encoding="UTF-8"?>
<svg version="1.1" xmlns="http://www.w3.org/2000/svg" width="800" height="800" >
<path d="M0 0 C1.27825653 0.00323273 1.27825653 0.00323273 2.58233643 0.00653076 C16.19828449 0.06158391 29.48719969 0.63397731 42.875 3.3125 C43.87063965 3.51117676 44.8662793 3.70985352 45.89208984 3.91455078 C81.07855678 11.19394538 114.69074481 25.85444075 142.875 48.3125 C143.74898437 48.99441406 144.62296875 49.67632812 145.5234375 50.37890625 C193.18655144 88.32769052 224.44749231 143.7749052 231.875 204.3125 C232.01639404 205.38226074 232.01639404 205.38226074 232.16064453 206.47363281 C237.13633199 248.61120781 229.43027476 291.35841894 212.3125 329.9375 C211.96082764 330.73067627 211.60915527 331.52385254 211.24682617 332.34106445 C209.30371421 336.58646291 207.15235981 340.60939059 204.73071289 344.60302734 C204.19466934 345.48920746 203.65862579 346.37538757 203.1063385 347.28842163 C202.6999968 347.95636749 202.29365509 348.62431335 201.875 349.3125 C202.93607468 349.31614563 203.99714935 349.31979126 205.09037781 349.32354736 C215.13763486 349.36064488 225.18458959 349.41857733 235.23161602 349.49640274 C240.39571507 349.53574852 245.55964689 349.56799991 250.72387695 349.58349609 C255.71672712 349.59874808 260.70911712 349.63334345 265.70176125 349.68080902 C267.59728791 349.69553527 269.4928803 349.70353593 271.38846397 349.70438385 C292.36847006 349.72318996 308.42216012 354.71110568 324.03515625 369.3359375 C335.69115728 381.41865148 340.83952202 397.79749825 340.875 414.3125 C339.94864354 432.25562179 332.58153482 447.31352142 319.5625 459.625 C302.8653346 473.52004594 286.21577389 474.90819015 265.43623352 474.81370544 C263.06022677 474.81760227 260.68422237 474.82324577 258.30822343 474.83047634 C252.4852044 474.8436544 246.6624106 474.83835633 240.83939664 474.82508337 C233.85819966 474.81022047 226.87707887 474.81872192 219.895879 474.82786357 C206.22016998 474.84502206 192.54454133 474.83953627 178.868834 474.82450638 C166.9026785 474.81144042 154.93655085 474.80626138 142.97038841 474.80882454 C141.77850241 474.80906516 141.77850241 474.80906516 140.56253789 474.80931065 C137.33684524 474.80997426 134.1111526 474.81067668 130.88545996 474.81143599 C100.64638665 474.81845498 70.40736236 474.80298491 40.16830152 474.77681253 C13.31295061 474.75369196 -13.54234646 474.74831231 -40.39770508 474.75854492 C-47.27675467 474.76114702 -54.15580427 474.76373205 -61.03485394 474.76614285 C-61.88179441 474.76644029 -62.72873489 474.76673774 -63.60134024 474.7670442 C-86.05604962 474.77466099 -108.51075461 474.76824536 -130.96546203 474.75744683 C-133.38186788 474.75629904 -135.79827374 474.75515587 -138.2146796 474.75402 C-139.81758908 474.75326476 -141.42049856 474.75249911 -143.02340804 474.75172299 C-154.98301913 474.74606822 -166.94261627 474.74739217 -178.9022274 474.75195122 C-192.5006065 474.75706137 -206.09893346 474.75119541 -219.69729956 474.73105692 C-226.63532173 474.72104598 -233.57326663 474.71569345 -240.51129341 474.72394943 C-246.8626432 474.73100606 -253.21382183 474.72420169 -259.56514905 474.7063458 C-261.86235063 474.70230131 -264.15956782 474.70330118 -266.45676359 474.70986467 C-269.58157694 474.71802849 -272.70581544 474.70768553 -275.83059216 474.69281673 C-276.72019177 474.69955439 -277.60979138 474.70629204 -278.52634856 474.71323386 C-294.93280822 474.56249667 -310.5830143 466.72644465 -322.125 455.3125 C-335.88259485 439.61687875 -339.39764051 422.50159983 -338.125 402.3125 C-336.06546037 386.73489114 -326.16314061 371.44829416 -313.875 362 C-302.94314976 354.53322431 -291.55638354 350.03052121 -278.32226562 349.99365234 C-277.48229034 349.98360672 -276.64231506 349.9735611 -275.77688599 349.96321106 C-273.02834698 349.93256913 -270.27990451 349.91539721 -267.53125 349.8984375 C-265.61453431 349.87971054 -263.69782672 349.86013601 -261.78112793 349.8397522 C-256.75725096 349.78858637 -251.73334731 349.74887771 -246.70935059 349.71160889 C-241.5743966 349.67147142 -236.43955212 349.62042366 -231.3046875 349.5703125 C-221.24486877 349.47373747 -211.18498798 349.3892741 -201.125 349.3125 C-202.0498394 347.68951241 -202.0498394 347.68951241 -202.99336243 346.03373718 C-203.81122641 344.59117455 -204.62894214 343.14852787 -205.4465332 341.70581055 C-205.85186531 340.99541374 -206.25719742 340.28501694 -206.67481232 339.55309296 C-210.04769598 333.590177 -212.83984558 327.51646898 -215.3125 321.125 C-215.72902832 320.0625708 -216.14555664 319.0001416 -216.57470703 317.90551758 C-222.88170642 301.48894928 -227.22154557 284.64612292 -230.125 267.3125 C-230.24359375 266.62285156 -230.3621875 265.93320312 -230.484375 265.22265625 C-240.08118822 206.61354693 -222.74504939 144.26249875 -188.65673828 96.41381836 C-183.81139138 89.74972427 -178.61599306 83.45138113 -173.125 77.3125 C-172.62436035 76.75014648 -172.1237207 76.18779297 -171.60791016 75.60839844 C-165.78503426 69.09714869 -159.88229929 62.86990503 -153.125 57.3125 C-151.85849609 56.21421875 -151.85849609 56.21421875 -150.56640625 55.09375 C-108.66913408 19.16556002 -55.08455551 -0.25248944 0 0 Z M-137.125 93.3125 C-137.95515625 94.07820313 -138.7853125 94.84390625 -139.640625 95.6328125 C-150.23825315 105.71765219 -160.18966509 118.37494797 -167.125 131.3125 C-167.125 131.9725 -167.125 132.6325 -167.125 133.3125 C-164.71578898 134.98087122 -162.32651477 136.50636588 -159.8125 138 C-159.12220703 138.42861328 -158.43191406 138.85722656 -157.72070312 139.29882812 C-156.72006836 139.89920898 -156.72006836 139.89920898 -155.69921875 140.51171875 C-155.08651123 140.88127686 -154.47380371 141.25083496 -153.8425293 141.6315918 C-151.9271794 142.60411408 -151.9271794 142.60411408 -149.125 141.3125 C-147.4923663 139.10210128 -147.4923663 139.10210128 -145.9375 136.375 C-132.03458373 113.81555095 -112.16261649 96.52775532 -90.125 82.3125 C-93.00153499 76.22893452 -95.96956799 70.62221868 -100.125 65.3125 C-111.07420966 65.3125 -129.28875329 85.84425383 -137.125 93.3125 Z M-113.65625 126.46655273 C-121.23556047 134.31925257 -128.55080773 143.36324678 -133.125 153.3125 C-131.04294343 154.60626347 -128.95942696 155.89756554 -126.875 157.1875 C-126.28847656 157.55230469 -125.70195312 157.91710937 -125.09765625 158.29296875 C-122.16138614 160.10751769 -119.22500871 161.79785696 -116.125 163.3125 C-115.39796875 162.23613281 -114.6709375 161.15976562 -113.921875 160.05078125 C-101.92825304 142.52598304 -88.67524109 128.07163983 -70.125 117.3125 C-71.03023213 113.1122229 -73.02782094 109.73283539 -75.1875 106.0625 C-75.75307617 105.08796875 -75.75307617 105.08796875 -76.33007812 104.09375 C-77.25734115 102.49744909 -78.19058456 100.90462471 -79.125 99.3125 C-89.1121135 99.3125 -106.8311893 119.65170239 -113.65625 126.46655273 Z M-83.125 153.3125 C-89.0523143 159.33798928 -93.57731616 166.22520051 -98.125 173.3125 C-95.92012906 175.68814933 -93.66638146 177.34074522 -90.89453125 179.01171875 C-90.09208984 179.49833984 -89.28964844 179.98496094 -88.46289062 180.48632812 C-87.62951172 180.98583984 -86.79613281 181.48535156 -85.9375 182 C-85.09251953 182.51111328 -84.24753906 183.02222656 -83.37695312 183.54882812 C-81.29526017 184.80725268 -79.21124508 186.06164166 -77.125 187.3125 C-74.59468157 184.86345518 -72.36326875 182.42293825 -70.3125 179.5625 C-64.7238191 172.06481423 -59.01408131 166.17249753 -51.48022461 160.63720703 C-48.3150562 158.41522871 -48.3150562 158.41522871 -46.125 155.3125 C-47.12565762 153.03660001 -47.12565762 153.03660001 -48.65234375 150.5234375 C-49.19697266 149.58242188 -49.74160156 148.64140625 -50.30273438 147.671875 C-50.88345703 146.68703125 -51.46417969 145.7021875 -52.0625 144.6875 C-52.63935547 143.69492187 -53.21621094 142.70234375 -53.81054688 141.6796875 C-55.24159874 139.21969752 -56.67999196 136.76430958 -58.125 134.3125 C-65.29885565 134.3125 -78.48036894 148.73481858 -83.125 153.3125 Z M-26.9375 210.0625 C-33.21499563 217.72366636 -35.76530145 226.99476913 -34.90625 236.8125 C-33.32550312 246.54017311 -29.02081098 255.25543952 -21.125 261.3125 C-12.82525684 266.81638612 -2.84650758 269.36779716 7.0625 267.75 C17.35870776 265.09668228 25.73796497 259.90911556 31.4453125 250.80859375 C35.90363643 242.05754078 37.31009913 231.97614623 34.65625 222.42578125 C31.05700786 212.68983126 24.97556153 205.07722763 15.625 200.375 C0.03270471 194.03054881 -15.49154366 198.05879579 -26.9375 210.0625 Z M70.875 287.3125 C70.22273438 288.04855469 69.57046875 288.78460937 68.8984375 289.54296875 C64.4730554 294.48399272 60.1662555 299.27443659 54.875 303.3125 C59.54938749 310.57154881 64.6475296 317.44708887 69.875 324.3125 C74.94385479 321.19799629 78.99988256 317.52213436 83.1875 313.3125 C84.13592773 312.38824219 84.13592773 312.38824219 85.10351562 311.4453125 C85.70486328 310.84460938 86.30621094 310.24390625 86.92578125 309.625 C87.46887939 309.08488281 88.01197754 308.54476563 88.5715332 307.98828125 C90.03230667 306.1102612 90.46588456 304.63619978 90.875 302.3125 C88.66885914 300.55967575 86.4601951 298.81019955 84.25 297.0625 C83.63253906 296.57136719 83.01507812 296.08023437 82.37890625 295.57421875 C78.64886883 292.62945237 74.86688555 289.8918722 70.875 287.3125 Z M104.74609375 318.39453125 C103.94300781 319.29558594 103.13992188 320.19664062 102.3125 321.125 C101.50683594 322.01832031 100.70117188 322.91164063 99.87109375 323.83203125 C97.71238072 326.2196898 97.71238072 326.2196898 96.875 329.3125 C95.55134306 329.99817815 94.21564794 330.66066772 92.875 331.3125 C91.08867703 332.81192868 89.34045079 334.35747953 87.625 335.9375 C86.73296875 336.75476563 85.8409375 337.57203125 84.921875 338.4140625 C84.24640625 339.04054688 83.5709375 339.66703125 82.875 340.3125 C83.85276067 341.79259643 84.8322494 343.27155144 85.8125 344.75 C86.35777344 345.57371094 86.90304687 346.39742187 87.46484375 347.24609375 C88.71302981 349.21235925 88.71302981 349.21235925 89.875 350.3125 C94.76536303 351.00106311 99.74864932 351.50064825 104.16796875 349.03125 C106.21857788 347.23031583 108.04159917 345.33345123 109.875 343.3125 C111.26958904 341.97786526 112.66542601 340.64453331 114.0625 339.3125 C120.10724058 333.60205873 120.10724058 333.60205873 122.875 326.3125 C120.61685152 324.51423555 118.36222261 322.8378199 116 321.1875 C115.34902344 320.71957031 114.69804688 320.25164062 114.02734375 319.76953125 C109.33305388 315.87065727 109.33305388 315.87065727 104.74609375 318.39453125 Z M139.875 340.3125 C138.53870254 341.78898938 137.20603329 343.2687633 135.875 344.75 C135.1325 345.57371094 134.39 346.39742187 133.625 347.24609375 C131.76728908 348.98837455 131.76728908 348.98837455 131.875 350.3125 C138.805 350.3125 145.735 350.3125 152.875 350.3125 C149.88939924 347.32689924 147.57475383 345.29469365 144.125 343.0625 C143.32578125 342.54171875 142.5265625 342.0209375 141.703125 341.484375 C141.09984375 341.09765625 140.4965625 340.7109375 139.875 340.3125 Z " fill="#464646" transform="translate(499.125,264.6875)"/>
<path d="M0 0 C0.97783924 -0.00350607 1.95567849 -0.00701215 2.96314922 -0.01062447 C6.24151297 -0.01993229 9.51969884 -0.01501667 12.79806995 -0.01015663 C15.17159587 -0.0138932 17.54512056 -0.01849474 19.9186433 -0.02388728 C25.08018757 -0.03357454 30.24169743 -0.03703235 35.40324879 -0.03497505 C43.0789461 -0.03192314 50.75460196 -0.04025327 58.43029122 -0.0507243 C72.93777883 -0.07006232 87.44525231 -0.07569246 101.9527513 -0.07683842 C113.15716267 -0.07775768 124.36156849 -0.08187527 135.56597805 -0.08823967 C138.79175227 -0.09003477 142.0175265 -0.0918144 145.24330074 -0.09358943 C146.04525162 -0.09403152 146.84720251 -0.09447362 147.67345494 -0.09492911 C170.22998292 -0.10723698 192.78650898 -0.1151303 215.34304047 -0.11424255 C216.61859778 -0.11419582 216.61859778 -0.11419582 217.91992393 -0.11414814 C222.22990619 -0.11398192 226.53988845 -0.11378384 230.8498707 -0.11357872 C232.13382415 -0.11351889 232.13382415 -0.11351889 233.44371605 -0.11345784 C235.17469412 -0.11337697 236.90567219 -0.11329337 238.63665027 -0.11320706 C265.5648935 -0.11198168 292.49308637 -0.12699247 319.42131519 -0.15435219 C349.67940064 -0.1850825 379.93745299 -0.2022841 410.19555503 -0.20042574 C413.42290103 -0.20027648 416.65024703 -0.20017907 419.87759304 -0.20011711 C420.67223922 -0.2000938 421.46688539 -0.20007049 422.28561175 -0.20004648 C435.06596947 -0.19998497 447.84628342 -0.21274929 460.62662813 -0.22998164 C473.47467586 -0.24694679 486.32265963 -0.24890507 499.17071237 -0.235763 C506.79992291 -0.22837965 514.42893897 -0.23201328 522.05812884 -0.25164768 C527.7601116 -0.26508016 533.46191465 -0.25752007 539.16388474 -0.24190123 C541.46668931 -0.23882682 543.769515 -0.24248026 546.07229467 -0.25362138 C568.23439621 -0.3537248 568.23439621 -0.3537248 579.05632496 4.25726891 C579.97316852 4.6456061 580.89001208 5.0339433 581.83463877 5.4340483 C598.47219165 12.84558202 608.47714705 26.50347135 615.12273121 42.88617516 C620.58654398 58.90808024 618.24905823 76.45463662 610.99968433 91.47748375 C603.26346616 106.07298853 589.81414833 117.34203706 574.12671661 122.42906857 C563.7729698 125.24971346 553.27336311 124.80692636 542.61755848 124.75847435 C540.24155173 124.76237118 537.86554732 124.76801467 535.48954839 124.77524525 C529.66652936 124.78842331 523.84373556 124.78312523 518.0207216 124.76985228 C511.03952461 124.75498938 504.05840383 124.76349083 497.07720396 124.77263247 C483.40149494 124.78979097 469.72586629 124.78430518 456.05015896 124.76927528 C444.08400346 124.75620933 432.1178758 124.75103028 420.15171337 124.75359344 C418.95982736 124.75383407 418.95982736 124.75383407 417.74386285 124.75407955 C414.5181702 124.75474317 411.29247756 124.75544558 408.06678492 124.75620489 C377.82771161 124.76322389 347.58868732 124.74775382 317.34962648 124.72158143 C290.49427557 124.69846086 263.6389785 124.69308121 236.78361988 124.70331383 C229.90457029 124.70591592 223.02552069 124.70850096 216.14647102 124.71091175 C215.29953054 124.7112092 214.45259007 124.71150665 213.57998472 124.71181311 C191.12527534 124.7194299 168.67057035 124.71301427 146.21586293 124.70221573 C143.79945708 124.70106795 141.38305122 124.69992477 138.96664536 124.69878891 C137.36373588 124.69803366 135.7608264 124.69726802 134.15791692 124.6964919 C122.19830583 124.69083712 110.23870869 124.69216107 98.27909756 124.69672012 C84.68071846 124.70183028 71.0823915 124.69596432 57.4840254 124.67582583 C50.54600323 124.66581489 43.60805833 124.66046235 36.67003155 124.66871834 C30.31868176 124.67577497 23.96750313 124.6689706 17.61617591 124.65111471 C15.31897433 124.64707021 13.02175714 124.64807009 10.72456137 124.65463357 C7.59974802 124.6627974 4.47550952 124.65245444 1.3507328 124.63758564 C0.46113319 124.64432329 -0.42846642 124.65106094 -1.3450236 124.65800276 C-17.75148327 124.50726558 -33.40168935 116.67121356 -44.94367504 105.25726891 C-58.70126989 89.56164765 -62.21631555 72.44636874 -60.94367504 52.25726891 C-58.88413541 36.67966004 -48.98181565 21.39306307 -36.69367504 11.94476891 C-25.26549455 4.13898504 -13.76943006 -0.06293414 0 0 Z " fill="#F1F1F1" transform="translate(221.94367504119873,614.7427310943604)"/>
<path d="M0 0 C1.08925781 -0.05414062 2.17851562 -0.10828125 3.30078125 -0.1640625 C10.22951986 -0.28135674 14.03428616 0.69269076 19.11621094 5.48583984 C21.27032804 8.62124318 21.34136861 11.47234985 21.046875 15.1875 C20.29421064 18.37019501 18.86491678 20.28289052 16.5 22.5 C17.325 22.95375 18.15 23.4075 19 23.875 C21.79512138 26.80987745 21.95112214 27.54843193 22.125 31.4375 C21.93003147 35.21988944 21.62053693 36.33469221 19.3125 39.5 C14.44910084 42.95841718 10.72059932 43.75136042 4.7734375 43.73046875 C3.4946875 43.72853516 2.2159375 43.72660156 0.8984375 43.72460938 C0.23811523 43.71840576 -0.42220703 43.71220215 -1.10253906 43.70581055 C-3.12577858 43.68749295 -5.14856097 43.68530157 -7.171875 43.68554688 C-17.07844902 43.64051699 -17.07844902 43.64051699 -20.5 42.5 C-20.5 28.97 -20.5 15.44 -20.5 1.5 C-13.58061079 0.63507635 -6.94850625 0.14801552 0 0 Z " fill="#4C4C4C" transform="translate(299.5,655.5)"/>
<path d="M0 0 C0.74636719 -0.020625 1.49273438 -0.04125 2.26171875 -0.0625 C8.95782512 -0.10908161 14.19905894 1.42808268 19.8125 5.25 C23.56707482 10.71119974 23.23914802 16.74142475 22.3125 23.125 C20.4207094 27.23758826 18.61352421 28.70780353 14.875 31.25 C12.04979666 32.16987531 9.50712684 32.36880091 6.546875 32.34765625 C5.74765625 32.34443359 4.9484375 32.34121094 4.125 32.33789062 C3.3 32.32951172 2.475 32.32113281 1.625 32.3125 C0.78453125 32.30798828 -0.0559375 32.30347656 -0.921875 32.29882812 C-2.98961401 32.28707961 -5.05731624 32.26914522 -7.125 32.25 C-7.125 35.55 -7.125 38.85 -7.125 42.25 C-11.085 42.25 -15.045 42.25 -19.125 42.25 C-19.125 28.72 -19.125 15.19 -19.125 1.25 C-12.67574075 0.60507408 -6.44943432 0.04502223 0 0 Z " fill="#4F4F4F" transform="translate(696.125,655.75)"/>
<path d="M0 0 C12.87 0 25.74 0 39 0 C39 3.63 39 7.26 39 11 C29.76 11 20.52 11 11 11 C11 12.65 11 14.3 11 16 C18.26 16 25.52 16 33 16 C33 19.3 33 22.6 33 26 C25.74 26 18.48 26 11 26 C11 27.65 11 29.3 11 31 C20.24 31 29.48 31 39 31 C39 34.3 39 37.6 39 41 C26.13 41 13.26 41 0 41 C0 27.47 0 13.94 0 0 Z " fill="#4E4E4E" transform="translate(336,657)"/>
<path d="M0 0 C1.81242052 -0.02687279 3.62495233 -0.04633715 5.4375 -0.0625 C6.44683594 -0.07410156 7.45617187 -0.08570313 8.49609375 -0.09765625 C11 0 11 0 12 1 C12.14615679 2.96294592 12.22739691 4.93079466 12.28125 6.8984375 C12.31863281 8.09984375 12.35601563 9.30125 12.39453125 10.5390625 C12.42933594 11.80492187 12.46414063 13.07078125 12.5 14.375 C12.56880287 16.86209638 12.64153519 19.34908807 12.71875 21.8359375 C12.74904297 22.94501465 12.77933594 24.0540918 12.81054688 25.19677734 C12.88745901 28.0816072 12.88745901 28.0816072 14 31 C15.89510699 31.08160748 17.79124504 31.13946459 19.6875 31.1875 C21.27111328 31.23970703 21.27111328 31.23970703 22.88671875 31.29296875 C26.52220889 30.95085864 28.15580422 30.27913943 31 28 C31.78182537 25.01638533 31.78182537 25.01638533 31.70703125 21.58203125 C31.75053711 19.70161133 31.75053711 19.70161133 31.79492188 17.78320312 C31.80072266 16.47287109 31.80652344 15.16253906 31.8125 13.8125 C31.83564287 12.47717269 31.86100781 11.14188192 31.88867188 9.80664062 C31.94768232 6.53746177 31.98386229 3.26962628 32 0 C35.96 0 39.92 0 44 0 C44.08111115 4.5211958 44.14056327 9.04092842 44.1875 13.5625 C44.21263672 14.83931641 44.23777344 16.11613281 44.26367188 17.43164062 C44.36996713 31.07286497 44.36996713 31.07286497 39.53515625 36.70703125 C33.28818076 41.39640542 29.41192749 42.38437415 21.75 42.4375 C20.92886719 42.47037109 20.10773437 42.50324219 19.26171875 42.53710938 C13.00201002 42.59167102 8.8267441 41.0169967 4 37 C0.22769503 32.01082246 -0.12553521 27.6177467 -0.09765625 21.484375 C-0.09443359 20.23398437 -0.09121094 18.98359375 -0.08789062 17.6953125 C-0.07951172 16.39335938 -0.07113281 15.09140625 -0.0625 13.75 C-0.05798828 12.43257812 -0.05347656 11.11515625 -0.04882812 9.7578125 C-0.03704316 6.50516259 -0.02059011 3.25260416 0 0 Z " fill="#505050" transform="translate(619,657)"/>
<path d="M0 0 C3.96 0 7.92 0 12 0 C14.57355224 5.19121383 17.13673279 10.38736887 19.69042969 15.58837891 C20.56064085 17.35702956 21.43367146 19.12429589 22.30957031 20.89013672 C23.56798971 23.4283772 24.81619009 25.97142116 26.0625 28.515625 C26.45622803 29.30430969 26.84995605 30.09299438 27.25561523 30.90557861 C27.79617554 32.01627716 27.79617554 32.01627716 28.34765625 33.14941406 C28.66742432 33.79783264 28.98719238 34.44625122 29.31665039 35.11431885 C30 37 30 37 30 41 C26.37 41 22.74 41 19 41 C18.01 38.69 17.02 36.38 16 34 C9.4 33.67 2.8 33.34 -4 33 C-4.495 35.475 -4.495 35.475 -5 38 C-5.66 38.99 -6.32 39.98 -7 41 C-9.3828125 41.29296875 -9.3828125 41.29296875 -12.125 41.1875 C-13.49011719 41.14689453 -13.49011719 41.14689453 -14.8828125 41.10546875 C-15.58148438 41.07066406 -16.28015625 41.03585937 -17 41 C-17.44056206 35.76932685 -15.99973911 32.30573412 -13.5625 27.8125 C-12.83249323 26.41387644 -12.10472887 25.01408077 -11.37890625 23.61328125 C-10.9936377 22.87416504 -10.60836914 22.13504883 -10.21142578 21.37353516 C-8.04478955 17.12846513 -6.02712556 12.81297261 -4 8.5 C-3.60240479 7.65671143 -3.20480957 6.81342285 -2.79516602 5.94458008 C-1.86185998 3.96379898 -0.93068485 1.98201404 0 0 Z " fill="#4E4E4E" transform="translate(405,657)"/>
<path d="M0 0 C14.19 0 28.38 0 43 0 C43 3.63 43 7.26 43 11 C37.72 11 32.44 11 27 11 C27 20.9 27 30.8 27 41 C23.04 41 19.08 41 15 41 C15 31.1 15 21.2 15 11 C10.05 11 5.1 11 0 11 C0 7.37 0 3.74 0 0 Z " fill="#545454" transform="translate(439,657)"/>
<path d="M0 0 C14.19 0 28.38 0 43 0 C43 3.63 43 7.26 43 11 C38.05 11 33.1 11 28 11 C28 20.9 28 30.8 28 41 C24.04 41 20.08 41 16 41 C16 31.1 16 21.2 16 11 C11.05 11 6.1 11 1 11 C0.67 10.67 0.34 10.34 0 10 C0 6.7 0 3.4 0 0 Z " fill="#545454" transform="translate(541,657)"/>
<path d="M0 0 C1.73527529 0.00138269 1.73527529 0.00138269 3.50560665 0.00279331 C4.1475788 0.00193889 4.78955094 0.00108446 5.45097679 0.00020415 C7.61756553 -0.00145239 9.78407806 0.0040735 11.95065975 0.00952244 C13.4975856 0.0098043 15.04451157 0.0096466 16.59143734 0.00907993 C20.80406531 0.00879191 25.01666505 0.01468934 29.22928643 0.02165389 C33.62688286 0.02788671 38.02447987 0.02849117 42.42208004 0.0296793 C50.75543011 0.03279283 59.08876714 0.04100651 67.42211145 0.05102879 C76.90683753 0.06218926 86.39156421 0.06770021 95.87629521 0.07272422 C115.39254588 0.0831891 134.90878439 0.10078896 154.42502499 0.12304783 C154.42502499 1.77304783 154.42502499 3.42304783 154.42502499 5.12304783 C102.61502499 5.12304783 50.80502499 5.12304783 -2.57497501 5.12304783 C-2.90497501 3.80304783 -3.23497501 2.48304783 -3.57497501 1.12304783 C-2.57497501 0.12304783 -2.57497501 0.12304783 0 0 Z " fill="#464646" transform="translate(423.5749750137329,732.8769521713257)"/>
<path d="M0 0 C3.63 0 7.26 0 11 0 C11 13.53 11 27.06 11 41 C7.37 41 3.74 41 0 41 C0 27.47 0 13.94 0 0 Z " fill="#4B4B4B" transform="translate(517,657)"/>
<path d="M0 0 C2.62506802 -0.02690844 5.24986173 -0.04679404 7.875 -0.0625 C8.62136719 -0.07087891 9.36773438 -0.07925781 10.13671875 -0.08789062 C15.7734375 -0.11328125 15.7734375 -0.11328125 18 1 C18.25 4.3125 18.25 4.3125 18 8 C15.58104807 10.66084713 14.15780496 10.98661157 10.546875 11.29296875 C9.29390625 11.25816406 8.0409375 11.22335937 6.75 11.1875 C5.48671875 11.16042969 4.2234375 11.13335938 2.921875 11.10546875 C1.95765625 11.07066406 0.9934375 11.03585937 0 11 C0 7.37 0 3.74 0 0 Z " fill="#E7E7E7" transform="translate(689,667)"/>
<path d="M0 0 C2.93756119 -0.0269501 5.87487555 -0.04681474 8.8125 -0.0625 C9.64587891 -0.07087891 10.47925781 -0.07925781 11.33789062 -0.08789062 C12.14033203 -0.09111328 12.94277344 -0.09433594 13.76953125 -0.09765625 C14.87711792 -0.10551147 14.87711792 -0.10551147 16.00708008 -0.11352539 C18 0 18 0 21 1 C20.125 4.875 20.125 4.875 19 6 C17.66956375 6.0983721 16.33406656 6.13078592 15 6.1328125 C14.195625 6.13410156 13.39125 6.13539063 12.5625 6.13671875 C11.716875 6.13285156 10.87125 6.12898437 10 6.125 C9.154375 6.12886719 8.30875 6.13273438 7.4375 6.13671875 C6.633125 6.13542969 5.82875 6.13414062 5 6.1328125 C4.2575 6.13168457 3.515 6.13055664 2.75 6.12939453 C1 6 1 6 0 5 C-0.04063832 3.33382885 -0.042721 1.66611905 0 0 Z " fill="#DEDEDE" transform="translate(290,683)"/>
<path d="M0 0 C6.27 0 12.54 0 19 0 C19.33 1.32 19.66 2.64 20 4 C16.95318939 6.03120707 16.39881676 6.24659875 12.98828125 6.1953125 C11.85229492 6.18564453 11.85229492 6.18564453 10.69335938 6.17578125 C9.90767578 6.15902344 9.12199219 6.14226563 8.3125 6.125 C7.51521484 6.11597656 6.71792969 6.10695313 5.89648438 6.09765625 C3.930861 6.07411585 1.96539225 6.03824547 0 6 C0 4.02 0 2.04 0 0 Z " fill="#E4E4E4" transform="translate(290,667)"/>
<path d="M0 0 C0.66 0 1.32 0 2 0 C2.67354499 1.43429001 3.33859701 2.87257057 4 4.3125 C4.556875 5.51326172 4.556875 5.51326172 5.125 6.73828125 C6 9 6 9 6 12 C2.7 12 -0.6 12 -4 12 C-4 10.68 -4 9.36 -4 8 C-3.34 8 -2.68 8 -2 8 C-1.855625 7.236875 -1.71125 6.47375 -1.5625 5.6875 C-1 3 -1 3 0 0 Z " fill="#D6D6D6" transform="translate(410,669)"/>
</svg>
